<svg version="1.1" xmlns="http://www.w3.org/2000/svg" xmlns:xlink="http://www.w3.org/1999/xlink" width="48" height="48"><defs><linearGradient x1="0" y1="0" x2="0" y2="0" gradientUnits="userSpaceOnUse" id="color-1"><stop offset="0.88" stop-color="#000000" stop-opacity="0"></stop><stop offset="1" stop-color="#000000" stop-opacity="0"></stop></linearGradient><filter id="dropshadow-base"><feColorMatrix type="matrix" values="0 0 0 0 0  0 0 0 0 0  0 0 0 0 0  0 0 0 .8 0"></feColorMatrix> <feOffset dx="0" dy="1"></feOffset> <feGaussianBlur stdDeviation="1"></feGaussianBlur> <feComposite in="SourceGraphic"></feComposite></filter><filter id="dropshadow-banner" x="-10%" y="-10%" width="120%" height="130%"><feColorMatrix type="matrix" values="0 0 0 0 0  0 0 0 0 0  0 0 0 0 0  0 0 0 .4 0"></feColorMatrix> <feOffset dx="0" dy="1"></feOffset> <feGaussianBlur stdDeviation="0.5"></feGaussianBlur> <feComposite in="SourceGraphic"></feComposite></filter></defs><g fill="none" fill-rule="nonzero" stroke="none" stroke-width="none" stroke-linecap="butt" stroke-linejoin="miter" stroke-miterlimit="10" stroke-dasharray="" stroke-dashoffset="0" font-family="none" font-weight="none" font-size="none" text-anchor="none" style="mix-blend-mode: normal"><path d="M2,24c0,-12.15026 9.84974,-22 22,-22c12.15026,0 22,9.84974 22,22c0,12.15026 -9.84974,22 -22,22c-12.15026,0 -22,-9.84974 -22,-22z" id="base 1 5" fill-opacity="0" fill="#000000" stroke-width="1"></path><path d="" fill="url(#color-1)" stroke-width="1"></path><path d="M17.23511,30.7656c0,0.62012 0.50737,1.12748 1.12748,1.12748h1.12748v3.94619c0,0.93581 0.75541,1.69122 1.69122,1.69122c0.93581,0 1.69122,-0.75541 1.69122,-1.69122v-3.94619h2.25496v3.94619c0,0.93581 0.75541,1.69122 1.69122,1.69122c0.93581,0 1.69122,-0.75541 1.69122,-1.69122v-3.94619h1.12748c0.62012,0 1.12748,-0.50737 1.12748,-1.12748v-11.27482h-13.52979zM14.4164,19.49077c-0.93581,0 -1.69122,0.75541 -1.69122,1.69122v7.89238c0,0.93581 0.75541,1.69122 1.69122,1.69122c0.93581,0 1.69122,-0.75541 1.69122,-1.69122v-7.89238c0,-0.93581 -0.75541,-1.69122 -1.69122,-1.69122zM33.5836,19.49077c-0.93581,0 -1.69122,0.75541 -1.69122,1.69122v7.89238c0,0.93581 0.75541,1.69122 1.69122,1.69122c0.93581,0 1.69122,-0.75541 1.69122,-1.69122v-7.89238c0,-0.93581 -0.75541,-1.69122 -1.69122,-1.69122zM27.98001,12.90628l1.47136,-1.47136c0.21986,-0.21986 0.21986,-0.57502 0,-0.79488c-0.21986,-0.21986 -0.57502,-0.21986 -0.79488,0l-1.66867,1.66304c-0.90199,-0.44536 -1.91108,-0.70468 -2.98783,-0.70468c-1.08238,0 -2.09712,0.25932 -3.00474,0.71031l-1.67431,-1.67431c-0.21986,-0.21986 -0.57502,-0.21986 -0.79488,0c-0.21986,0.21986 -0.21986,0.57502 0,0.79488l1.477,1.477c-1.67431,1.23459 -2.76797,3.21896 -2.76797,5.45702h13.52979c0,-2.24369 -1.0993,-4.22806 -2.78488,-5.45702zM21.74504,16.10833h-1.12748v-1.12748h1.12748zM27.38245,16.10833h-1.12748v-1.12748h1.12748z" fill="none" stroke-width="0"></path><path d="M17.23511,19.49077h13.52979v11.27482c0,0.62012 -0.50737,1.12748 -1.12748,1.12748h-1.12748v3.94619c0,0.93581 -0.75541,1.69122 -1.69122,1.69122c-0.93581,0 -1.69122,-0.75541 -1.69122,-1.69122v-3.94619h-2.25496v3.94619c0,0.93581 -0.75541,1.69122 -1.69122,1.69122c-0.93581,0 -1.69122,-0.75541 -1.69122,-1.69122v-3.94619h-1.12748c-0.62012,0 -1.12748,-0.50737 -1.12748,-1.12748zM16.10762,21.182v7.89238c0,0.93581 -0.75541,1.69122 -1.69122,1.69122c-0.93581,0 -1.69122,-0.75541 -1.69122,-1.69122v-7.89238c0,-0.93581 0.75541,-1.69122 1.69122,-1.69122c0.93581,0 1.69122,0.75541 1.69122,1.69122zM35.27482,21.182v7.89238c0,0.93581 -0.75541,1.69122 -1.69122,1.69122c-0.93581,0 -1.69122,-0.75541 -1.69122,-1.69122v-7.89238c0,-0.93581 0.75541,-1.69122 1.69122,-1.69122c0.93581,0 1.69122,0.75541 1.69122,1.69122zM30.76489,18.36329h-13.52979c0,-2.23805 1.09366,-4.22242 2.76797,-5.45702l-1.477,-1.477c-0.21986,-0.21986 -0.21986,-0.57502 0,-0.79488c0.21986,-0.21986 0.57502,-0.21986 0.79488,0l1.67431,1.67431c0.90762,-0.45099 1.92236,-0.71031 3.00474,-0.71031c1.07675,0 2.08584,0.25932 2.98783,0.70468l1.66867,-1.66304c0.21986,-0.21986 0.57502,-0.21986 0.79488,0c0.21986,0.21986 0.21986,0.57502 0,0.79488l-1.47136,1.47136c1.68559,1.22896 2.78488,3.21332 2.78488,5.45702zM21.74504,14.98085h-1.12748v1.12748h1.12748zM27.38245,14.98085h-1.12748v1.12748h1.12748z" fill="#bf3a44" stroke-width="0"></path><path d="M2,24c0,-12.15026 9.84974,-22 22,-22c12.15026,0 22,9.84974 22,22c0,12.15026 -9.84974,22 -22,22c-12.15026,0 -22,-9.84974 -22,-22z" id="base 1 1 1" fill="none" stroke-width="1"></path><g fill="#000000" stroke-width="1" font-family="Roboto, sans-serif" font-weight="normal" font-size="14" text-anchor="start"></g><rect x="2" y="2" width="44" height="22" fill="none" stroke-width="1"></rect><path d="M2,24v-22h44v22z" fill="none" stroke-width="1"></path><path d="M2,24v-22h44v22z" fill="none" stroke-width="1"></path><path d="M2,24v-22h44v22z" fill="none" stroke-width="1"></path><path d="M2,24v-22h44v22z" fill="none" stroke-width="1"></path></g></svg>