<svg version="1.1" xmlns="http://www.w3.org/2000/svg" xmlns:xlink="http://www.w3.org/1999/xlink" width="48" height="48"><defs><linearGradient x1="0" y1="0" x2="0" y2="0" gradientUnits="userSpaceOnUse" id="color-1"><stop offset="0.88" stop-color="#000000" stop-opacity="0"></stop><stop offset="1" stop-color="#000000" stop-opacity="0"></stop></linearGradient><filter id="dropshadow-base"><feColorMatrix type="matrix" values="0 0 0 0 0  0 0 0 0 0  0 0 0 0 0  0 0 0 .8 0"></feColorMatrix> <feOffset dx="0" dy="1"></feOffset> <feGaussianBlur stdDeviation="1"></feGaussianBlur> <feComposite in="SourceGraphic"></feComposite></filter><filter id="dropshadow-banner" x="-10%" y="-10%" width="120%" height="130%"><feColorMatrix type="matrix" values="0 0 0 0 0  0 0 0 0 0  0 0 0 0 0  0 0 0 .4 0"></feColorMatrix> <feOffset dx="0" dy="1"></feOffset> <feGaussianBlur stdDeviation="0.5"></feGaussianBlur> <feComposite in="SourceGraphic"></feComposite></filter></defs><g fill="none" fill-rule="nonzero" stroke="none" stroke-width="none" stroke-linecap="butt" stroke-linejoin="miter" stroke-miterlimit="10" stroke-dasharray="" stroke-dashoffset="0" font-family="none" font-weight="none" font-size="none" text-anchor="none" style="mix-blend-mode: normal"><path d="M2,24c0,-12.15026 9.84974,-22 22,-22c12.15026,0 22,9.84974 22,22c0,12.15026 -9.84974,22 -22,22c-12.15026,0 -22,-9.84974 -22,-22z" id="base 1 21" fill-opacity="0" fill="#000000" stroke-width="1"></path><path d="" fill="url(#color-1)" stroke-width="1"></path><path d="M25.39035,21.00227l-4.13714,-3.10625v12.20796l4.13714,-3.10625l4.0015,-2.99773zM25.39035,21.00227l-4.13714,-3.10625v12.20796l4.13714,-3.10625l4.0015,-2.99773zM25.39035,21.00227l-4.13714,-3.10625v12.20796l4.13714,-3.10625l4.0015,-2.99773zM22.60965,13.24343v-2.74001c-2.72645,0.27129 -5.20873,1.35644 -7.21626,2.99773l1.92615,1.93971c1.50565,-1.16654 3.30971,-1.95327 5.29012,-2.19743zM15.40695,17.35344l-1.93971,-1.92615c-1.64129,2.00753 -2.72645,4.48982 -2.99773,7.21626h2.74001c0.24416,-1.9804 1.03089,-3.78447 2.19743,-5.29012zM13.20952,25.35644h-2.74001c0.27129,2.72645 1.35644,5.20873 2.99773,7.21626l1.93971,-1.93971c-1.16654,-1.49208 -1.95327,-3.29615 -2.19743,-5.27655zM15.39339,34.49885c2.00753,1.64129 4.50338,2.72645 7.21626,2.99773v-2.74001c-1.9804,-0.24416 -3.78447,-1.03089 -5.29012,-2.19743zM37.53049,24c0,6.99923 -5.31725,12.77767 -12.14014,13.49658v-2.74001c5.31725,-0.70535 9.42726,-5.26299 9.42726,-10.75657c0,-5.49358 -4.11001,-10.05122 -9.42726,-10.75657v-2.74001c6.8229,0.71891 12.14014,6.49735 12.14014,13.49658z" fill="none" stroke-width="0"></path><path d="M17.31953,15.44086l-1.92615,-1.93971c2.00753,-1.64129 4.48982,-2.72645 7.21626,-2.99773v2.74001c-1.9804,0.24416 -3.78447,1.03089 -5.29012,2.19743zM13.20952,22.64356h-2.74001c0.27129,-2.72645 1.35644,-5.20873 2.99773,-7.21626l1.93971,1.92615c-1.16654,1.50565 -1.95327,3.30971 -2.19743,5.29012zM15.40695,30.63299l-1.93971,1.93971c-1.64129,-2.00753 -2.72645,-4.48982 -2.99773,-7.21626h2.74001c0.24416,1.9804 1.03089,3.78447 2.19743,5.27655zM17.31953,32.55914c1.50565,1.16654 3.30971,1.95327 5.29012,2.19743v2.74001c-2.71288,-0.27129 -5.20873,-1.35644 -7.21626,-2.99773zM37.53049,24c0,6.99923 -5.31725,12.77767 -12.14014,13.49658v-2.74001c5.31725,-0.70535 9.42726,-5.26299 9.42726,-10.75657c0,-5.49358 -4.11001,-10.05122 -9.42726,-10.75657v-2.74001c6.8229,0.71891 12.14014,6.49735 12.14014,13.49658z" fill="#bf3a44" stroke-width="0"></path><path d="M2,24c0,-12.15026 9.84974,-22 22,-22c12.15026,0 22,9.84974 22,22c0,12.15026 -9.84974,22 -22,22c-12.15026,0 -22,-9.84974 -22,-22z" id="base 1 17 1" fill="none" stroke-width="1"></path><path d="M2,24c0,-12.15026 9.84974,-22 22,-22c12.15026,0 22,9.84974 22,22c0,12.15026 -9.84974,22 -22,22c-12.15026,0 -22,-9.84974 -22,-22z" id="base 1 13 1" fill="none" stroke-width="1"></path><path d="M2,24c0,-12.15026 9.84974,-22 22,-22c12.15026,0 22,9.84974 22,22c0,12.15026 -9.84974,22 -22,22c-12.15026,0 -22,-9.84974 -22,-22z" id="base 1 9 1" fill="none" stroke-width="1"></path><path d="M2,24c0,-12.15026 9.84974,-22 22,-22c12.15026,0 22,9.84974 22,22c0,12.15026 -9.84974,22 -22,22c-12.15026,0 -22,-9.84974 -22,-22z" id="base 1 5 1" fill="none" stroke-width="1"></path><path d="M2,24c0,-12.15026 9.84974,-22 22,-22c12.15026,0 22,9.84974 22,22c0,12.15026 -9.84974,22 -22,22c-12.15026,0 -22,-9.84974 -22,-22z" id="base 1 1 1" fill="none" stroke-width="1"></path><g fill="#000000" stroke-width="1" font-family="Roboto, sans-serif" font-weight="normal" font-size="14" text-anchor="start"></g><rect x="2" y="2" width="44" height="22" fill="none" stroke-width="1"></rect><path d="M2,24v-22h44v22z" fill="none" stroke-width="1"></path><path d="M2,24v-22h44v22z" fill="none" stroke-width="1"></path><path d="M2,24v-22h44v22z" fill="none" stroke-width="1"></path><path d="M2,24v-22h44v22z" fill="none" stroke-width="1"></path><g fill="#000000" stroke-width="1" font-family="Roboto, sans-serif" font-weight="normal" font-size="14" text-anchor="start"></g><rect x="2" y="2" width="44" height="22" fill="none" stroke-width="1"></rect><path d="M2,24v-22h44v22z" fill="none" stroke-width="1"></path><path d="M2,24v-22h44v22z" fill="none" stroke-width="1"></path><path d="M2,24v-22h44v22z" fill="none" stroke-width="1"></path><path d="M2,24v-22h44v22z" fill="none" stroke-width="1"></path><g fill="#000000" stroke-width="1" font-family="Roboto, sans-serif" font-weight="normal" font-size="14" text-anchor="start"></g><rect x="2" y="2" width="44" height="22" fill="none" stroke-width="1"></rect><path d="M2,24v-22h44v22z" fill="none" stroke-width="1"></path><path d="M2,24v-22h44v22z" fill="none" stroke-width="1"></path><path d="M2,24v-22h44v22z" fill="none" stroke-width="1"></path><path d="M2,24v-22h44v22z" fill="none" stroke-width="1"></path><g fill="#000000" stroke-width="1" font-family="Roboto, sans-serif" font-weight="normal" font-size="14" text-anchor="start"></g><rect x="2" y="2" width="44" height="22" fill="none" stroke-width="1"></rect><path d="M2,24v-22h44v22z" fill="none" stroke-width="1"></path><path d="M2,24v-22h44v22z" fill="none" stroke-width="1"></path><path d="M2,24v-22h44v22z" fill="none" stroke-width="1"></path><path d="M2,24v-22h44v22z" fill="none" stroke-width="1"></path><g fill="#000000" stroke-width="1" font-family="Roboto, sans-serif" font-weight="normal" font-size="14" text-anchor="start"></g><rect x="2" y="2" width="44" height="22" fill="none" stroke-width="1"></rect><path d="M2,24v-22h44v22z" fill="none" stroke-width="1"></path><path d="M2,24v-22h44v22z" fill="none" stroke-width="1"></path><path d="M2,24v-22h44v22z" fill="none" stroke-width="1"></path><path d="M2,24v-22h44v22z" fill="none" stroke-width="1"></path></g></svg>